<svg xmlns="http://www.w3.org/2000/svg" viewBox="0 0 253.1 39.6">
  <defs>
    <linearGradient id="linear-gradient" x1="22.2" y1="77.1" x2="220" y2="-37" gradientUnits="userSpaceOnUse">
      <stop offset="0" stop-color="#0048ff"/>
      <stop offset=".2" stop-color="#2f90ff"/>
      <stop offset=".4" stop-color="#a1c4ff"/>
      <stop offset=".6" stop-color="#ffb085"/>
      <stop offset=".8" stop-color="#d62828"/>
      <stop offset="1" stop-color="#7b0001"/>
    </linearGradient>
  </defs>
  <path fill="url(#linear-gradient)" d="M0,38.6V.7h12.8c4,0,7.1.5,9.1,1.4,4.1,1.9,6.7,6.2,6.7,11.4s-3.9,13.2-14.7,13.2h-4.5v11.9H0ZM13.4,18.2c3.9,0,5.8-1.3,5.8-4.6s-1.9-4.5-6.2-4.5h-3.8v9h4.1ZM64.6,38.6V.7h8.5v37.9h-8.5ZM78.6,7.2V.7h8.5v6.5h-8.5ZM78.6,38.6V10.2h8.5v28.4h-8.5ZM131.9,19.2c0,10.2-7.5,20.2-20.2,20.2s-20.1-8.8-20.1-19.9S100.8,0,111.8,0s16.8,5.8,18.9,13.4h-10.9c-1.8-3.1-4.7-4.9-8.3-4.9-6.1,0-10.3,4.9-10.3,11s4,11.4,10.4,11.4,7.9-2.2,9.1-6.1h-11.3v-7.7h22.5v2.2ZM136.2,38.6V10.2h8v3h.1c1.5-3,3.8-4,7.1-4v8.6c-5.1,0-6.7,1.9-6.7,5.2v15.7h-8.5ZM175.5,38.6v-3.1h-.1c-1.2,2.5-4.6,4-8.3,4-8.4,0-14.2-6.6-14.2-15.2s6.1-15.2,14.2-15.2,6.7,1.4,8.3,4h.1v-3h8.5v28.4h-8.5ZM175.5,24.4c0-4-3.2-7.2-7.2-7.2s-7,3.2-7,7.3,3.1,7.2,7.1,7.2,7.1-3.2,7.1-7.3ZM211.1,38.6v-3.1h-.1c-1.6,2.6-4.5,4-8.5,4-8.6,0-14.2-6.6-14.2-15.2s5.8-15.1,14.1-15.1,5.9,1,8.3,3.4V.7h8.5v37.9h-8.1ZM211.1,24.3c0-3.9-3-7.1-7.2-7.1s-7.2,3-7.2,7.1,3,7.3,7.1,7.3,7.3-3.1,7.3-7.3ZM231.6,27c.5,3.2,3.2,5.4,6.7,5.4s3.8-.9,5.2-2.7h8.7c-2.7,6.2-7.9,9.8-13.9,9.8s-15.1-6.6-15.1-15.1,6.6-15.3,14.9-15.3,15,6.7,15,15.5,0,1.5-.2,2.3h-21.3ZM244.6,21.2c-.7-2.9-3.2-4.9-6.5-4.9s-5.7,1.8-6.4,4.9h12.9ZM45.1,9.3c-8.5,0-15.3,6.3-15.3,15.1s6.7,15.1,15.3,15.1,15.3-6.3,15.3-15.2-6.8-15-15.3-15ZM50.7,32.2l-5.6-3.2-5.6,3.2,1.3-6.3-4.8-4.3,6.4-.7,2.6-5.9,2.6,5.9,6.4.7-4.8,4.3,1.3,6.3Z"/>
</svg>
